<?xml version="1.0" standalone="no"?>
<!DOCTYPE svg PUBLIC "-//W3C//DTD SVG 20010904//EN"
 "http://www.w3.org/TR/2001/REC-SVG-20010904/DTD/svg10.dtd">
<svg version="1.0" xmlns="http://www.w3.org/2000/svg"
 width="700.000000pt" height="700.000000pt" viewBox="0 0 700.000000 700.000000"
 preserveAspectRatio="xMidYMid meet">
<metadata>
Created by potrace 1.11, written by Peter Selinger 2001-2013
</metadata>
<g transform="translate(0.000000,700.000000) scale(0.100000,-0.100000)"
fill="#000000" stroke="none">
<path d="M2524 5851 c-4 -4 -51 -12 -81 -14 -7 0 -13 -5 -13 -10 0 -5 -6 -7
-14 -4 -8 3 -16 1 -18 -4 -2 -6 -10 -11 -18 -13 -42 -9 -80 -30 -81 -44 0 -10
-3 -12 -5 -5 -3 7 -14 2 -31 -13 -14 -13 -28 -22 -32 -20 -7 4 -32 -20 -26
-26 2 -2 -9 -12 -25 -23 -16 -11 -33 -30 -39 -42 -6 -13 -15 -23 -21 -23 -5 0
-10 -5 -10 -10 0 -6 -9 -20 -20 -32 -10 -12 -17 -25 -14 -30 3 -4 0 -8 -5 -8
-6 0 -11 -12 -11 -26 0 -14 -4 -23 -10 -19 -5 3 -11 -1 -11 -9 -2 -25 -4 -30
-12 -43 -5 -7 -5 -18 -1 -25 4 -6 3 -8 -2 -5 -6 3 -16 -14 -23 -39 -7 -24 -18
-41 -23 -38 -6 4 -7 -2 -3 -16 5 -15 4 -20 -4 -16 -7 5 -11 -1 -11 -14 0 -12
-5 -31 -12 -43 -7 -12 -13 -31 -15 -42 -2 -10 -7 -22 -11 -25 -9 -7 -33 -68
-39 -102 -3 -15 -9 -25 -14 -22 -8 5 -14 -17 -10 -38 0 -5 -4 -8 -9 -8 -5 0
-9 -3 -8 -7 1 -7 -8 -35 -29 -83 -8 -20 -10 -27 -12 -46 0 -8 -5 -12 -11 -9
-6 4 -10 -5 -10 -19 0 -23 -4 -26 -33 -26 -19 0 -37 3 -41 8 -4 4 -16 8 -27 8
-36 3 -40 4 -35 12 2 4 -5 9 -17 9 -12 1 -29 3 -37 6 -8 2 -34 8 -57 12 -24 4
-43 12 -43 18 0 5 -8 3 -17 -4 -9 -8 -14 -9 -10 -3 4 7 -2 14 -13 17 -13 3
-18 1 -13 -6 4 -7 -1 -6 -10 2 -14 11 -17 11 -17 0 0 -11 -2 -11 -10 1 -8 12
-10 12 -10 -5 0 -13 -3 -16 -8 -8 -11 17 -81 -18 -117 -59 -38 -42 -54 -75
-57 -115 -1 -18 -6 -33 -11 -33 -5 0 -4 -6 2 -14 9 -10 9 -16 1 -21 -8 -5 -8
-11 1 -21 8 -10 8 -18 0 -27 -7 -10 -7 -17 0 -24 8 -8 8 -13 0 -17 -7 -4 -7
-15 -1 -31 6 -16 5 -25 -3 -29 -8 -3 -7 -5 2 -5 15 -1 -62 -61 -78 -61 -6 0
-17 -10 -25 -22 -9 -12 -16 -19 -16 -15 0 9 -19 -6 -61 -47 -16 -16 -29 -26
-29 -23 0 4 -43 -36 -95 -87 -52 -52 -95 -99 -95 -105 0 -6 -7 -11 -15 -11 -8
0 -15 -6 -15 -14 0 -8 -10 -22 -22 -30 -12 -9 -18 -16 -13 -16 5 0 0 -7 -11
-15 -10 -8 -15 -15 -11 -15 4 0 -3 -11 -17 -24 -15 -13 -26 -28 -26 -33 0 -6
-7 -16 -15 -23 -8 -7 -15 -20 -15 -30 0 -10 -6 -20 -13 -23 -7 -2 -23 -25 -35
-51 -14 -27 -28 -43 -34 -40 -7 4 -8 2 -4 -4 4 -6 -3 -30 -14 -52 -11 -22 -18
-46 -14 -52 4 -7 3 -8 -4 -4 -8 5 -12 0 -12 -13 0 -12 -3 -21 -7 -21 -5 0 -13
-11 -20 -25 -8 -19 -8 -23 0 -18 7 4 6 -1 -2 -10 -7 -9 -10 -17 -5 -17 5 0 4
-4 -1 -8 -10 -7 -39 -85 -40 -107 0 -5 -3 -13 -8 -16 -8 -6 -16 -38 -19 -81
-1 -16 -5 -28 -9 -28 -3 0 -5 -14 -4 -30 1 -17 -2 -33 -7 -36 -4 -3 -8 -27 -8
-55 0 -27 -4 -49 -10 -49 -5 0 -9 -10 -9 -22 0 -19 1 -311 0 -383 0 -10 4 -25
10 -31 6 -7 9 -18 8 -26 -4 -33 2 -89 10 -84 4 3 6 -6 3 -19 -2 -14 2 -33 9
-42 12 -14 12 -16 -1 -8 -12 6 -13 5 -2 -6 6 -7 12 -28 12 -46 0 -18 4 -33 9
-33 4 0 8 -8 8 -17 0 -37 3 -44 15 -37 10 6 10 4 0 -8 -8 -10 -9 -17 -2 -20 5
-1 12 -12 14 -23 2 -11 9 -32 15 -47 6 -16 8 -28 5 -28 -3 0 4 -13 15 -29 12
-16 21 -35 21 -43 0 -8 7 -23 15 -34 8 -10 15 -27 15 -36 0 -10 5 -18 11 -18
6 0 9 -7 5 -15 -3 -9 0 -15 9 -15 9 0 12 -6 9 -15 -4 -8 -1 -15 5 -15 6 0 11
-8 11 -18 0 -9 11 -29 25 -44 14 -15 25 -31 25 -36 0 -5 7 -15 15 -22 8 -7 15
-22 15 -33 0 -11 3 -17 7 -14 3 4 18 -10 32 -30 23 -35 35 -49 87 -108 12 -12
24 -30 27 -39 4 -9 14 -16 22 -16 9 0 13 -5 10 -11 -4 -6 2 -13 14 -16 11 -3
18 -9 15 -14 -3 -5 1 -9 9 -9 8 0 17 -7 21 -15 3 -8 13 -15 21 -15 9 0 14 -4
11 -8 -6 -10 29 -42 45 -42 5 0 7 -5 4 -10 -3 -6 -2 -10 3 -10 5 0 18 -8 30
-17 11 -10 29 -26 40 -35 11 -9 23 -14 26 -11 3 4 6 1 6 -5 0 -6 11 -17 24
-24 14 -7 50 -30 80 -51 33 -22 61 -35 69 -31 6 4 9 4 5 -1 -9 -10 16 -35 36
-35 9 0 16 -5 16 -11 0 -6 6 -9 13 -6 6 2 29 -7 49 -20 22 -13 38 -18 38 -12
0 7 8 2 19 -9 10 -12 26 -22 35 -22 9 0 30 -7 46 -15 17 -9 30 -13 30 -9 0 3
11 -1 25 -10 13 -9 33 -16 44 -16 11 0 22 -4 25 -9 3 -4 17 -7 31 -6 14 2 25
-1 25 -6 0 -5 18 -9 41 -9 22 0 38 -4 35 -8 -4 -7 26 -12 82 -15 6 0 12 -3 12
-6 0 -4 21 -7 48 -8 26 -1 110 -5 186 -8 107 -4 141 -3 148 7 5 9 8 9 8 2 0
-8 13 -10 38 -6 20 3 56 6 80 6 23 0 42 5 42 11 0 5 5 3 10 -5 6 -10 10 -11
10 -2 0 7 15 12 40 12 22 0 40 5 40 10 0 6 18 10 39 10 22 0 43 5 47 11 3 6
15 9 25 6 11 -3 19 -1 19 5 0 5 4 7 8 4 5 -3 20 1 33 8 30 15 80 30 93 27 5
-1 12 3 16 9 4 6 17 12 28 13 12 1 22 5 22 9 0 4 7 8 15 8 8 0 15 5 15 10 0 6
6 10 13 8 6 -1 26 5 43 15 17 9 34 13 38 10 3 -4 6 -1 6 5 0 7 7 12 15 12 8 0
15 3 15 8 0 4 25 18 55 32 30 14 55 31 55 38 0 7 5 10 10 7 6 -3 10 -1 10 4 0
6 7 11 15 11 8 0 15 5 15 11 0 5 5 7 10 4 6 -3 10 -1 10 4 0 6 7 11 16 11 8 0
13 3 10 8 -2 4 13 16 35 26 21 11 37 21 34 24 -6 6 37 38 48 34 4 -1 7 3 7 8
0 15 72 80 90 81 8 0 10 3 3 5 -7 3 -1 16 15 33 15 16 30 26 35 24 4 -2 7 2 7
9 0 8 13 25 30 38 16 14 29 30 30 35 0 6 9 17 19 25 11 7 18 17 15 22 -3 4 0
8 5 8 6 0 11 7 11 16 0 8 4 12 10 9 5 -3 12 5 16 19 3 13 12 27 20 30 8 3 14
12 14 20 0 8 3 16 8 18 9 4 36 50 69 118 15 30 31 57 35 58 4 2 8 12 8 23 0
10 4 19 10 19 5 0 9 3 8 7 -4 19 15 62 25 56 5 -3 7 -1 4 4 -4 6 0 27 8 47 8
20 15 39 14 42 0 4 4 10 9 13 6 3 385 6 844 6 l833 0 3 -213 c1 -128 6 -211
12 -207 5 3 7 -4 5 -15 -2 -11 2 -26 9 -33 7 -7 17 -23 20 -35 4 -12 12 -22
17 -22 5 0 9 -7 9 -15 0 -8 6 -15 13 -15 7 0 19 -9 27 -20 8 -10 27 -22 42
-25 15 -4 28 -11 28 -16 0 -6 9 -7 21 -4 15 5 19 4 15 -4 -9 -14 -16 -13 281
-15 148 -1 241 3 240 9 -1 5 4 10 11 11 6 1 13 2 15 4 1 1 11 3 21 5 10 2 23
10 27 17 5 7 9 9 9 5 0 -4 9 -3 20 3 11 6 18 15 15 21 -4 5 1 9 9 9 9 0 16 6
16 13 0 7 9 18 20 25 12 7 18 17 15 22 -3 6 -1 10 4 10 6 0 11 11 11 25 0 14
4 25 8 25 5 0 8 21 8 46 -1 25 3 48 8 52 5 3 6 -1 1 -8 -5 -8 -4 -11 3 -6 7 4
8 17 2 35 -5 17 -4 33 2 39 6 6 6 12 -3 17 -8 6 -10 4 -4 -5 5 -9 4 -11 -3 -6
-8 5 -8 15 -2 32 12 31 13 77 2 70 -5 -3 -9 1 -9 8 0 8 7 12 15 8 11 -4 13 -2
7 9 -11 17 -12 50 -2 66 4 6 2 15 -4 19 -8 5 -9 3 -4 -6 6 -9 4 -11 -4 -6 -9
6 -8 13 6 29 10 11 13 17 7 14 -7 -4 -14 0 -17 8 -4 10 -1 12 11 8 14 -5 15
-3 5 8 -17 17 -17 32 0 22 6 -4 4 6 -7 21 -10 16 -13 25 -6 21 14 -9 11 43 -4
63 -6 9 -4 11 9 6 14 -6 16 -4 10 7 -11 17 -12 50 -2 66 4 6 2 15 -4 19 -8 5
-9 3 -4 -6 5 -9 4 -11 -3 -6 -8 5 -8 15 -1 33 12 33 9 103 -5 103 -6 0 -5 4 3
9 8 6 11 16 6 31 -6 17 -4 21 6 15 8 -5 6 0 -3 11 -17 19 -17 21 0 38 9 11 12
16 6 13 -7 -4 -11 3 -11 18 0 16 4 22 11 18 6 -4 3 5 -6 19 -13 19 -15 29 -6
34 7 5 8 3 3 -6 -5 -9 -4 -11 3 -6 9 5 9 13 2 27 -6 10 -8 19 -4 19 3 0 1 7
-6 15 -11 13 -10 14 5 9 14 -6 16 -4 10 7 -11 17 -12 50 -2 66 4 6 2 15 -4 19
-8 5 -9 3 -4 -6 5 -9 4 -11 -3 -6 -8 5 -8 15 -1 33 12 33 9 103 -5 103 -6 0
-5 4 3 9 8 6 11 16 6 31 -6 17 -4 21 6 15 8 -5 6 1 -4 12 -11 13 -14 23 -8 27
6 4 7 14 4 23 -5 12 -3 14 8 8 11 -6 12 -5 2 6 -7 7 -13 17 -13 22 0 4 6 5 13
0 6 -4 4 5 -5 19 -13 19 -15 29 -6 34 7 5 8 3 3 -6 -5 -9 -4 -11 4 -6 8 6 9
12 2 20 -7 9 -7 16 2 25 9 10 8 11 -7 5 -16 -6 -18 -4 -13 9 4 9 10 24 13 32
3 8 2 15 -3 15 -5 0 -9 27 -8 59 0 33 -3 57 -6 55 -4 -2 -7 6 -7 19 0 12 -3
45 -7 72 -4 28 -8 60 -9 73 0 12 -4 22 -8 22 -5 0 -8 18 -8 40 0 22 -4 40 -10
40 -5 0 -10 14 -10 30 0 17 -4 30 -8 30 -4 0 -9 11 -10 24 -1 14 -9 44 -18 68
-8 24 -16 49 -16 56 -1 6 -5 12 -10 12 -5 0 -6 5 -3 10 3 6 3 10 -2 10 -11 0
-31 67 -24 77 3 5 13 8 21 8 8 0 18 4 22 10 5 6 8 5 8 -4 0 -9 4 -10 13 -4 6
6 22 9 34 8 12 -1 21 3 20 8 -1 5 12 14 29 21 16 6 41 21 54 34 13 12 27 22
32 22 4 0 8 7 8 16 0 9 5 12 12 8 8 -5 9 -2 5 9 -3 10 -2 17 3 17 6 0 10 7 10
17 0 9 3 13 7 9 11 -11 30 80 29 139 -1 30 3 55 8 55 5 0 5 5 0 13 -5 6 -9 44
-9 84 0 39 -3 69 -7 67 -5 -3 -8 5 -8 16 0 12 -13 39 -30 60 -16 20 -26 40
-22 44 4 4 3 6 -3 5 -17 -5 -56 12 -50 22 3 5 -1 6 -10 3 -8 -4 -22 0 -31 7
-13 10 -17 10 -25 -2 -7 -12 -9 -11 -9 2 0 12 -7 15 -25 11 -15 -2 -22 -9 -18
-16 4 -6 -1 -5 -10 3 -9 7 -17 9 -17 4 0 -6 -11 -9 -25 -8 -14 2 -25 0 -25 -5
0 -4 -11 -8 -25 -9 -49 -3 -55 -4 -55 -14 0 -6 -3 -7 -7 -4 -3 4 -12 2 -20 -4
-10 -9 -13 -8 -13 2 0 9 -3 10 -8 3 -10 -14 -39 -24 -87 -31 -38 -4 -42 -2
-56 29 -9 18 -20 48 -23 66 -4 17 -11 32 -15 32 -4 0 -8 10 -8 22 -1 13 -7 24
-13 26 -5 2 -10 9 -10 17 0 7 -11 37 -24 68 -14 30 -22 57 -19 61 3 3 -1 8
-10 12 -9 3 -13 12 -10 20 3 8 1 14 -4 14 -5 0 -10 6 -11 13 0 6 -3 19 -5 27
-16 50 -20 59 -27 55 -5 -3 -11 13 -15 35 -4 22 -11 42 -16 46 -5 3 -7 10 -4
15 4 5 1 9 -4 9 -6 0 -10 3 -10 8 4 22 -2 42 -11 37 -6 -4 -10 5 -10 19 0 14
-5 26 -12 26 -6 0 -9 3 -5 6 3 4 -1 21 -10 38 -10 17 -16 34 -15 39 1 4 -2 7
-8 7 -5 0 -10 7 -10 16 0 8 -4 12 -10 9 -5 -3 -10 0 -10 7 0 14 -72 98 -84 98
-4 0 -19 14 -33 30 -13 17 -28 28 -33 25 -4 -2 -20 7 -34 20 -15 14 -34 25
-42 25 -9 0 -12 5 -8 12 4 7 3 8 -4 4 -6 -4 -25 0 -42 9 -71 37 -108 38 -1528
39 -767 1 -1395 -1 -1398 -3z m193 -230 c9 9 13 8 13 0 0 -9 5 -9 20 -1 15 8
20 8 20 -2 0 -10 2 -10 9 1 6 9 11 10 15 2 5 -8 13 -8 29 0 16 9 22 9 25 1 3
-9 9 -9 23 -2 13 8 19 7 19 0 0 -8 6 -8 20 0 15 8 20 8 20 -2 0 -10 2 -10 9 1
6 9 11 10 15 2 5 -8 13 -8 29 0 16 9 22 9 25 1 3 -9 9 -9 23 -2 13 8 19 7 19
0 0 -8 6 -8 20 0 15 8 20 8 20 -2 0 -10 2 -10 9 1 6 9 11 10 15 2 5 -8 13 -8
29 0 16 9 22 9 25 1 3 -9 9 -9 23 -2 13 8 19 7 19 0 0 -8 6 -8 20 0 15 8 20 8
20 -2 0 -10 2 -10 9 1 6 9 11 10 15 2 5 -8 13 -8 29 0 16 9 22 9 25 1 3 -9 9
-9 23 -2 13 8 19 7 19 0 0 -8 6 -8 20 0 15 8 20 8 20 -2 0 -10 2 -10 9 1 6 9
11 10 15 2 5 -8 13 -8 29 0 16 9 22 9 25 1 3 -9 9 -9 23 -2 13 8 19 7 19 0 0
-8 6 -8 20 0 15 8 20 8 20 -2 0 -10 2 -10 9 1 6 9 11 10 15 2 5 -8 13 -8 29 0
16 9 22 9 25 1 3 -9 9 -9 23 -2 13 8 19 7 19 0 0 -8 6 -8 20 0 15 8 20 8 20
-2 0 -10 2 -10 9 1 6 9 11 10 15 2 5 -8 13 -8 29 0 15 9 22 9 25 1 2 -8 11 -8
29 -1 15 5 29 6 32 2 7 -10 41 -13 41 -4 0 4 9 7 20 8 11 1 20 -1 20 -5 0 -4
9 -8 20 -8 11 0 20 3 20 6 0 3 22 5 50 5 27 0 50 -4 50 -8 0 -4 9 -3 20 3 15
8 20 8 20 -2 0 -10 2 -10 9 1 6 9 11 10 15 2 5 -8 13 -8 29 0 16 9 22 9 25 0
2 -6 8 -9 13 -5 13 8 129 12 129 4 0 -3 9 -6 20 -6 11 0 20 3 20 6 0 3 9 6 20
7 11 1 20 -1 20 -5 0 -4 9 -8 20 -8 11 0 20 3 20 6 0 3 22 5 50 5 27 0 50 -4
50 -8 0 -4 9 -3 20 3 15 8 20 8 20 -2 0 -10 2 -10 9 1 6 9 11 10 15 2 5 -8 13
-8 29 0 16 9 22 9 25 0 2 -6 8 -9 13 -5 13 8 129 12 129 4 0 -3 9 -6 20 -6 11
0 20 3 20 6 0 3 9 6 20 7 11 1 20 -1 20 -5 0 -4 9 -8 20 -8 11 0 20 3 20 6 0
3 22 5 50 5 27 0 50 -4 50 -8 0 -4 9 -3 20 3 15 8 20 8 21 -2 0 -10 2 -10 5
-1 4 8 13 9 28 3 16 -6 28 -5 36 3 10 9 11 9 6 0 -5 -9 3 -13 26 -14 18 -1 37
-1 41 0 5 1 6 -3 3 -8 -4 -5 7 -12 24 -16 16 -4 30 -11 30 -16 0 -5 7 -9 15
-9 8 0 15 -5 15 -12 0 -6 3 -9 6 -6 7 8 44 -28 44 -43 0 -5 4 -8 9 -5 4 3 19
-16 32 -42 13 -26 27 -50 32 -53 4 -3 9 -16 10 -27 1 -12 5 -22 9 -22 4 0 8
-9 8 -19 0 -11 5 -23 11 -26 6 -4 8 -13 5 -21 -3 -8 -1 -14 4 -14 6 0 10 -9
10 -20 0 -11 5 -20 10 -20 6 0 10 -9 10 -21 0 -11 4 -18 8 -15 4 2 8 -3 9 -12
3 -32 9 -52 21 -64 7 -7 12 -23 12 -36 0 -15 4 -21 12 -16 8 5 9 0 5 -15 -3
-13 -3 -20 0 -17 4 3 16 -23 28 -59 11 -36 24 -63 28 -59 4 4 7 -4 7 -17 0
-14 5 -30 10 -35 6 -6 13 -21 15 -34 2 -13 10 -27 17 -32 7 -4 9 -8 4 -8 -4 0
-1 -12 9 -26 11 -18 13 -24 4 -19 -8 5 -6 -1 4 -12 9 -11 17 -29 17 -41 0 -12
5 -22 11 -22 5 0 8 -4 4 -9 -3 -5 2 -17 11 -25 8 -9 12 -16 8 -16 -5 0 -3 -5
4 -12 7 -7 12 -22 12 -35 0 -13 4 -23 9 -23 6 0 8 -9 6 -20 -2 -11 0 -18 6
-15 5 4 9 -6 9 -20 0 -15 4 -24 10 -20 9 5 15 -23 11 -47 0 -5 3 -8 8 -8 8 0
37 -89 33 -102 -1 -5 4 -8 10 -8 9 0 8 -4 -2 -10 -12 -8 -12 -10 -1 -10 11 0
11 -3 0 -17 -10 -12 -10 -15 -1 -9 8 5 6 -6 -5 -31 -18 -38 -43 -71 -43 -57 0
5 -5 3 -12 -4 -7 -7 -20 -12 -31 -12 -10 0 -15 -4 -12 -10 4 -6 -388 -10
-1129 -10 l-1134 0 -30 29 c-16 17 -27 33 -24 36 3 3 -1 5 -10 5 -8 0 -21 11
-28 25 -8 14 -20 23 -27 21 -7 -3 -13 0 -13 7 0 7 -9 20 -20 30 -11 9 -20 14
-20 12 0 -3 -13 7 -30 22 -45 43 -69 63 -77 66 -5 1 -7 5 -6 9 2 5 0 8 -5 7
-17 -3 -51 14 -56 27 -3 8 -13 14 -21 14 -9 0 -13 5 -10 10 3 6 -1 10 -9 10
-9 0 -16 4 -16 8 0 4 -17 14 -37 21 -21 8 -45 19 -53 27 -9 7 -32 20 -53 29
-20 8 -37 20 -37 26 0 5 -3 8 -8 6 -4 -3 -25 3 -46 14 -21 10 -42 16 -47 14
-4 -3 -10 -1 -14 5 -3 5 -15 10 -25 10 -10 0 -20 4 -22 10 -1 5 -15 11 -30 12
-16 1 -28 5 -28 9 0 4 -19 10 -42 14 -24 4 -50 10 -58 12 -8 2 -22 5 -30 7 -9
1 -20 5 -26 8 -6 4 -23 9 -38 12 -16 3 -31 8 -34 10 -3 3 -11 1 -19 -5 -9 -9
-13 -8 -13 0 0 7 -20 11 -49 11 -28 0 -53 5 -56 10 -4 7 -13 6 -27 -1 -16 -9
-23 -8 -29 2 -7 11 -9 11 -9 -1 0 -9 -3 -11 -8 -5 -4 6 -34 10 -67 10 -54 0
-60 2 -57 20 5 40 10 50 22 47 8 -2 10 3 6 14 -4 10 -2 20 4 24 5 3 11 18 12
33 1 15 6 27 11 27 4 0 6 4 3 9 -4 5 -2 11 3 13 5 1 11 12 13 23 1 11 5 22 8
25 10 10 40 81 40 95 0 8 6 15 13 15 9 0 9 2 -1 9 -11 7 -10 9 3 15 9 3 14 10
10 15 -3 5 -1 12 5 16 6 4 8 11 5 16 -4 5 -1 9 4 9 6 0 11 11 11 25 0 14 5 25
10 25 6 0 9 3 9 8 -1 4 0 10 1 15 1 4 3 10 4 15 5 23 32 72 41 72 5 0 3 5 -5
10 -9 6 -10 10 -3 10 6 0 14 14 18 30 4 17 11 30 16 30 5 0 9 7 9 15 0 8 4 15
10 15 5 0 6 7 3 17 -4 11 -3 14 5 9 7 -4 12 -2 12 4 0 16 78 90 96 90 8 0 13
4 10 8 -6 10 91 46 117 45 11 -1 15 3 11 10 -5 9 -3 9 6 0 10 -9 17 -10 27 -2z
m-646 -1425 c4 -5 13 -5 20 0 18 11 169 12 175 2 3 -5 14 -3 25 2 13 8 19 7
19 0 0 -6 6 -10 13 -9 32 4 78 -2 73 -10 -3 -4 6 -7 20 -5 14 1 46 -4 70 -11
24 -7 44 -11 44 -8 0 3 6 1 13 -4 6 -5 35 -18 62 -28 28 -10 56 -23 64 -29 12
-8 13 -8 7 2 -7 11 -4 11 13 0 12 -7 21 -16 21 -21 0 -4 5 -5 10 -2 6 3 10 1
10 -4 0 -6 3 -10 8 -10 20 3 32 -2 26 -13 -4 -7 -3 -8 5 -4 6 4 18 0 27 -8 9
-9 20 -13 26 -10 6 4 9 3 6 -2 -3 -5 0 -15 8 -22 10 -9 14 -10 14 -1 0 7 14
-2 30 -20 17 -17 37 -31 45 -31 8 0 15 -5 15 -10 0 -6 11 -16 25 -22 14 -6 25
-17 25 -25 0 -7 4 -13 10 -13 5 0 33 -25 62 -56 29 -31 65 -69 81 -84 15 -16
27 -34 27 -40 0 -6 5 -8 12 -4 7 4 8 3 4 -4 -4 -7 -2 -17 4 -24 42 -50 53 -67
65 -95 8 -18 18 -33 23 -33 5 0 9 -6 9 -12 0 -7 10 -33 21 -57 12 -25 22 -54
22 -65 0 -17 2 -18 10 -6 8 12 10 10 10 -10 0 -14 7 -45 16 -70 9 -25 16 -55
16 -67 0 -13 4 -23 8 -23 3 0 6 -10 5 -22 -1 -13 1 -28 6 -34 5 -5 10 -34 12
-62 2 -29 7 -55 10 -59 4 -3 2 -13 -5 -20 -7 -9 -8 -17 -2 -21 15 -11 17 -64
2 -73 -10 -7 -10 -9 0 -9 6 0 12 -9 12 -21 0 -13 -4 -18 -12 -13 -10 5 -10 4
-1 -6 10 -11 10 -17 0 -29 -10 -12 -9 -13 3 -6 13 8 13 7 1 -8 -8 -11 -9 -17
-2 -17 7 0 8 -8 2 -22 -4 -13 -7 -33 -6 -45 1 -13 -2 -23 -7 -23 -5 0 -6 -4
-3 -10 3 -5 0 -10 -7 -10 -10 0 -10 -2 1 -9 10 -6 10 -10 1 -16 -6 -4 -9 -13
-6 -21 3 -8 1 -14 -4 -14 -6 0 -10 -13 -10 -29 0 -16 -5 -42 -12 -58 -12 -30
-14 -38 -16 -66 -1 -12 -7 -16 -14 -11 -7 4 -10 4 -6 -1 4 -4 1 -22 -7 -40 -7
-19 -11 -36 -7 -39 3 -3 0 -6 -6 -6 -6 0 -16 -16 -22 -35 -6 -19 -16 -35 -21
-35 -6 0 -8 -4 -4 -9 3 -5 -5 -17 -17 -25 -15 -11 -18 -16 -8 -16 11 -1 10 -4
-4 -15 -11 -8 -17 -15 -13 -15 4 0 -1 -9 -10 -19 -31 -34 -43 -50 -43 -57 0
-4 -11 -17 -24 -29 -14 -13 -22 -26 -19 -29 4 -3 1 -6 -6 -6 -7 0 -9 -4 -6
-10 3 -5 1 -10 -5 -10 -13 0 -25 -11 -59 -55 -12 -16 -26 -30 -29 -30 -13 1
-41 -29 -36 -37 3 -4 -2 -8 -10 -8 -8 0 -21 -6 -28 -13 -7 -8 -24 -19 -37 -26
-12 -7 -20 -15 -17 -19 7 -6 -53 -36 -66 -34 -5 1 -8 -2 -8 -8 0 -5 -7 -10
-16 -10 -8 0 -12 -4 -9 -10 3 -5 -3 -10 -14 -10 -12 0 -21 -5 -21 -11 0 -5 -4
-8 -9 -4 -5 3 -12 1 -16 -5 -3 -5 -15 -10 -26 -10 -11 0 -17 -4 -14 -10 3 -5
-3 -10 -14 -10 -12 0 -21 -4 -21 -9 0 -5 -10 -7 -22 -3 -13 3 -19 1 -15 -5 4
-7 -11 -13 -38 -17 -25 -4 -45 -12 -45 -18 0 -5 -7 -8 -15 -4 -8 3 -15 1 -15
-3 0 -5 -7 -12 -16 -15 -9 -4 -13 -2 -8 5 4 8 1 8 -14 0 -11 -6 -32 -11 -47
-11 -14 0 -24 -3 -22 -7 6 -9 -32 -12 -241 -16 -84 -2 -155 0 -157 3 -3 4 -16
6 -30 5 -14 -2 -25 2 -25 8 0 7 -5 5 -10 -3 -5 -8 -10 -10 -10 -5 0 6 -16 12
-36 13 -20 2 -46 7 -56 13 -11 6 -26 8 -34 5 -9 -3 -12 -1 -9 4 3 6 1 11 -4
11 -6 1 -14 2 -18 4 -5 1 -21 5 -38 10 -16 4 -35 12 -42 17 -7 5 -17 7 -23 3
-5 -3 -10 -1 -10 4 0 6 -9 11 -21 11 -11 0 -17 5 -14 10 3 6 -3 10 -14 10 -12
0 -21 5 -21 11 0 5 -4 7 -10 4 -5 -3 -10 -1 -10 4 0 6 -9 11 -20 11 -11 0 -20
3 -20 8 0 4 -18 16 -40 26 -22 11 -40 23 -40 28 0 4 -6 8 -13 8 -7 0 -20 8
-29 18 -22 22 -46 42 -52 42 -10 0 -166 160 -166 170 0 5 -7 10 -16 10 -8 0
-12 4 -9 10 3 5 -3 17 -15 27 -11 10 -20 23 -20 31 0 7 -3 11 -8 8 -4 -2 -16
15 -27 37 -11 23 -30 53 -42 67 -13 14 -23 30 -23 37 0 17 -33 86 -45 95 -5 4
-7 8 -2 8 4 0 1 16 -7 35 -8 19 -12 35 -8 35 3 0 1 5 -6 12 -7 7 -12 22 -12
34 0 13 -4 25 -9 28 -4 3 -7 17 -6 31 2 14 -2 25 -8 25 -5 0 -7 3 -4 7 4 3 1
13 -6 21 -10 13 -9 14 3 7 12 -7 13 -6 4 6 -6 8 -11 28 -10 46 0 17 -2 29 -7
26 -4 -2 -5 76 -3 174 6 220 8 243 20 236 5 -4 7 1 3 10 -4 10 -1 17 5 17 6 0
9 2 6 5 -3 3 1 31 9 63 8 31 15 63 15 70 1 6 5 12 10 12 4 0 8 11 8 24 0 13 7
29 15 36 8 6 14 15 13 18 -2 14 24 72 33 72 4 0 6 7 3 15 -4 8 -1 15 5 15 6 0
18 18 27 40 9 22 19 40 23 40 3 0 12 14 19 30 8 17 17 28 22 25 4 -3 13 9 20
26 7 16 21 34 31 40 11 5 19 14 19 19 0 6 9 19 20 30 11 11 20 18 20 15 0 -3
6 0 14 7 8 7 13 15 11 18 -2 3 3 11 11 18 8 7 14 10 14 6 0 -4 14 9 31 29 17
21 36 37 42 37 5 0 19 10 31 23 12 12 30 29 41 37 17 13 18 13 11 0 -4 -9 -1
-8 7 3 8 9 22 17 32 17 10 0 15 3 12 7 -4 3 2 13 14 21 11 8 23 11 26 8 3 -3
13 3 22 13 9 10 24 17 34 15 9 -1 17 4 17 12 0 8 3 13 8 12 8 -1 38 9 62 21 8
4 23 7 33 5 9 -1 15 2 11 7 -3 5 10 9 28 9 25 0 29 3 18 10 -11 7 -7 10 20 11
19 1 38 1 43 0 4 0 7 3 7 7 0 5 18 8 39 8 22 -1 37 2 34 7 -3 6 48 11 95 10 6
-1 12 3 12 7 0 10 33 7 41 -4z m3814 -675 c22 -11 36 -20 31 -21 -5 0 1 -9 14
-20 13 -11 21 -20 18 -20 -3 0 -2 -16 2 -35 4 -19 5 -35 1 -35 -3 0 -4 -36 -1
-80 3 -44 3 -80 0 -80 -3 0 -3 -36 0 -80 3 -44 1 -80 -3 -80 -5 0 -5 -5 -2
-11 9 -14 -4 -101 -14 -95 -4 3 -14 -5 -21 -19 -7 -13 -18 -21 -25 -19 -7 3
-16 1 -19 -4 -3 -6 -16 -8 -28 -4 -16 4 -19 2 -13 -8 6 -10 4 -11 -6 -4 -23
14 -62 17 -53 3 5 -8 3 -9 -7 -3 -23 14 -62 17 -53 3 5 -8 3 -9 -7 -3 -22 13
-81 16 -73 2 5 -7 3 -8 -7 -2 -22 13 -81 16 -73 2 5 -7 3 -8 -7 -2 -22 13 -81
16 -73 2 5 -7 3 -8 -7 -2 -23 14 -62 17 -53 3 5 -8 3 -9 -7 -3 -8 5 -25 10
-37 12 -17 2 -22 -1 -16 -10 6 -10 4 -10 -7 -2 -8 6 -43 12 -78 13 -50 2 -62
0 -56 -11 6 -10 5 -11 -6 0 -7 6 -19 12 -27 12 -8 0 -10 -5 -6 -12 6 -10 4
-10 -7 -2 -8 6 -54 12 -104 13 -92 3 -134 17 -145 51 -3 8 -6 124 -8 256 l-3
242 24 26 c13 14 32 26 41 26 10 0 15 4 11 10 -4 6 155 9 432 10 418 0 441 -1
478 -19z"/>
<path d="M2765 3702 c-16 -8 -31 -19 -33 -24 -2 -4 -8 -8 -14 -8 -12 0 -33
-21 -41 -40 -5 -13 -6 -13 -6 0 -1 14 -17 -8 -37 -50 -4 -8 -10 -17 -13 -20
-14 -12 -62 -80 -56 -80 3 0 0 -6 -7 -14 -7 -8 -16 -12 -20 -9 -5 2 -8 0 -8
-6 0 -20 -62 -101 -72 -95 -7 4 -8 2 -4 -4 6 -11 -18 -52 -54 -92 -33 -37 -50
-61 -50 -70 0 -6 -4 -10 -10 -10 -5 0 -12 -11 -16 -25 -3 -14 -10 -23 -14 -20
-5 3 -11 -4 -15 -15 -3 -11 -10 -20 -13 -20 -4 0 -16 -16 -26 -35 -11 -19 -23
-35 -28 -35 -4 0 -8 -7 -8 -15 0 -8 -5 -15 -11 -15 -5 0 -15 -13 -20 -30 -6
-16 -14 -28 -19 -25 -4 2 -16 -11 -26 -30 -10 -19 -22 -35 -26 -35 -5 0 -8 -5
-8 -11 0 -7 -11 -22 -26 -35 -14 -13 -21 -24 -17 -24 4 0 1 -6 -7 -13 -8 -7
-20 -21 -26 -32 -14 -25 -47 -31 -64 -10 -7 8 -19 15 -27 15 -8 0 -11 5 -8 10
3 6 1 10 -5 10 -7 0 -29 13 -50 30 -20 16 -40 27 -44 23 -3 -3 -6 1 -6 10 0
10 -7 17 -15 17 -8 0 -15 5 -15 11 0 5 -4 7 -10 4 -5 -3 -10 -1 -10 4 0 6 -7
11 -16 11 -8 0 -13 4 -10 9 3 5 -2 12 -12 15 -32 12 -73 41 -120 86 -9 8 -17
13 -18 10 -2 -3 -13 3 -24 13 -11 9 -27 17 -36 17 -8 0 -12 5 -8 11 5 8 1 8
-14 0 -12 -7 -23 -7 -27 -2 -5 10 -45 7 -100 -6 -16 -4 -34 -6 -38 -5 -5 2 -6
-2 -3 -7 4 -5 -3 -12 -14 -16 -11 -3 -20 -11 -20 -16 0 -5 -7 -9 -15 -9 -8 0
-15 -7 -15 -15 0 -8 -4 -15 -10 -15 -5 0 -12 -11 -16 -25 -3 -14 -9 -25 -13
-25 -4 0 -7 -12 -7 -27 1 -20 -3 -27 -14 -25 -12 3 -12 1 -3 -9 6 -6 9 -18 6
-27 -5 -11 -3 -13 8 -7 12 8 12 6 0 -8 -9 -12 -10 -21 -3 -29 5 -7 13 -28 17
-45 3 -18 10 -33 15 -33 5 0 12 -9 15 -20 4 -11 11 -18 16 -15 5 4 9 -1 9 -9
0 -9 4 -16 8 -16 8 0 23 -11 69 -50 7 -5 17 -10 22 -10 5 0 13 -5 17 -12 5 -7
3 -8 -6 -3 -9 5 -11 4 -6 -4 4 -6 11 -9 16 -6 5 3 18 -3 29 -14 11 -11 22 -17
25 -14 3 3 8 -2 12 -11 3 -9 12 -16 20 -16 8 0 14 -4 14 -10 0 -5 11 -12 25
-16 14 -3 23 -10 20 -14 -5 -7 14 -19 25 -16 10 2 38 -29 33 -37 -2 -4 -1 -7
4 -6 21 4 34 -2 27 -12 -4 -7 -1 -10 7 -7 7 2 25 -8 40 -23 15 -15 30 -25 33
-22 3 4 6 1 6 -5 0 -7 7 -12 15 -12 8 0 15 -4 15 -10 0 -5 11 -12 25 -16 14
-4 24 -9 21 -12 -8 -7 40 -42 58 -42 9 0 16 -4 16 -8 0 -7 47 -30 80 -38 22
-6 112 -6 135 -1 11 3 26 7 34 9 15 3 41 22 67 46 10 9 14 10 14 2 0 -6 16 10
37 37 20 26 40 50 45 51 4 2 8 10 8 18 0 8 4 14 10 14 5 0 12 11 16 25 3 14
10 22 15 19 5 -3 9 1 9 10 0 8 4 16 8 18 5 2 24 26 44 54 19 28 44 61 56 74
12 13 22 30 22 37 0 7 5 13 10 13 6 0 14 8 17 18 4 9 18 28 32 41 14 13 19 20
11 16 -8 -3 -6 1 4 9 11 9 16 16 10 16 -5 0 3 11 18 24 15 12 25 25 23 28 -3
3 4 13 15 23 11 10 20 24 20 32 0 8 5 11 10 8 6 -3 10 -1 10 6 0 6 14 28 30
48 47 56 49 59 44 64 -3 3 6 14 20 25 14 10 22 22 19 26 -3 3 -1 6 5 6 7 0 12
5 12 10 0 6 11 23 25 38 14 15 25 32 25 38 0 6 9 19 20 29 11 10 20 22 20 28
0 5 11 18 25 29 14 11 23 24 19 29 -3 5 1 12 9 15 8 3 23 21 33 40 10 19 22
34 26 34 5 0 8 7 8 16 0 8 5 12 10 9 6 -3 10 1 10 9 0 9 5 16 12 16 6 0 8 3 5
7 -4 3 -2 12 3 19 14 16 21 48 24 111 1 29 -1 50 -6 47 -4 -3 -8 5 -8 18 0 13
-5 29 -12 36 -7 7 -9 12 -5 12 4 0 -13 20 -39 45 -25 25 -55 45 -66 45 -13 0
-17 4 -12 13 5 7 0 6 -11 -3 -11 -9 -16 -10 -11 -2 11 18 -111 14 -149 -6z"/>
</g>
</svg>
