<?xml version="1.0" standalone="no"?><!-- Generator: Gravit.io --><svg xmlns="http://www.w3.org/2000/svg" xmlns:xlink="http://www.w3.org/1999/xlink" style="isolation:isolate" viewBox="-909.37 -265.653 1444.207 1135" width="1444.207" height="1135"><g id="null"><path d=" M -714 301.847 C -714 -11.365 -459.712 -265.653 -146.5 -265.653 C 166.712 -265.653 421 -11.365 421 301.847 C 421 615.059 166.712 869.347 -146.5 869.347 C -459.712 869.347 -714 615.059 -714 301.847 Z " fill="rgb(0,255,179)" fill-opacity="0.07"/><path d=" M 283.299 701.125 C 274.076 701.125 266.602 693.651 266.602 684.428 L 266.602 626.07 C 266.602 616.847 274.076 609.373 283.299 609.373 C 292.522 609.373 299.996 616.847 299.996 626.07 L 299.996 684.428 C 299.996 693.651 292.522 701.125 283.299 701.125 Z " fill="rgb(242,109,118)"/><path d=" M -433.302 693.615 C -433.302 684.4 -425.821 676.918 -416.605 676.918 C -407.39 676.918 -399.908 684.4 -399.908 693.615 C -399.908 702.831 -407.39 710.312 -416.605 710.312 C -425.821 710.312 -433.302 702.831 -433.302 693.615 Z " fill="rgb(67,191,191)"/><path d=" M -537.218 688.643 L -553.915 688.643 C -563.138 688.643 -570.612 681.169 -570.612 671.946 C -570.612 662.723 -563.138 655.249 -553.915 655.249 L -537.218 655.249 C -527.995 655.249 -520.521 662.723 -520.521 671.946 C -520.521 681.169 -527.994 688.643 -537.218 688.643 Z " fill="rgb(255,192,51)"/><g id="act"><path d=" M 376.77 567.363 L -140.276 567.363 C -156.14 567.363 -169 554.503 -169 538.639 L -169 -150.754 L -54.101 -265.653 L 376.77 -265.653 C 392.635 -265.653 405.495 -252.793 405.495 -236.929 L 405.495 538.639 C 405.495 554.503 392.635 567.363 376.77 567.363 Z " fill="rgb(239,242,250)"/><path d=" M -54.101 -265.653 L -169 -150.754 L -82.825 -150.754 C -66.96 -150.754 -54.101 -163.613 -54.101 -179.478 L -54.101 -265.653 Z " fill="rgb(199,207,226)"/><g id="null"><path d=" M 304.958 93.406 L -68.464 93.406 C -76.395 93.406 -82.827 86.983 -82.827 79.043 C -82.827 71.105 -76.395 64.68 -68.464 64.68 L 304.957 64.68 C 312.888 64.68 319.32 71.103 319.32 79.043 C 319.32 86.983 312.89 93.406 304.958 93.406 Z " fill="rgb(149,156,179)"/><path d=" M 304.958 150.855 L -68.464 150.855 C -76.395 150.855 -82.827 144.432 -82.827 136.492 C -82.827 128.554 -76.395 122.129 -68.464 122.129 L 304.957 122.129 C 312.888 122.129 319.32 128.552 319.32 136.492 C 319.32 144.432 312.89 150.855 304.958 150.855 Z " fill="rgb(149,156,179)"/><path d=" M 304.958 208.304 L -68.464 208.304 C -76.395 208.304 -82.827 201.88 -82.827 193.941 C -82.827 186.001 -76.395 179.578 -68.464 179.578 L 304.957 179.578 C 312.888 179.578 319.32 186.001 319.32 193.941 C 319.32 201.88 312.89 208.304 304.958 208.304 Z " fill="rgb(149,156,179)"/><path d=" M 161.335 265.754 L -68.464 265.754 C -76.395 265.754 -82.827 259.331 -82.827 251.391 C -82.827 243.453 -76.395 237.028 -68.464 237.028 L 161.333 237.028 C 169.265 237.028 175.696 243.452 175.696 251.391 C 175.696 259.331 169.266 265.754 161.335 265.754 Z " fill="rgb(149,156,179)"/><path d=" M 161.335 323.203 L -68.464 323.203 C -76.395 323.203 -82.827 316.78 -82.827 308.84 C -82.827 300.902 -76.395 294.477 -68.464 294.477 L 161.333 294.477 C 169.265 294.477 175.696 300.9 175.696 308.84 C 175.696 316.78 169.266 323.203 161.335 323.203 Z " fill="rgb(149,156,179)"/></g><g id="null"><path d=" M 75.16 411.978 L -68.464 411.978 C -76.395 411.978 -82.827 405.554 -82.827 397.615 C -82.827 389.677 -76.395 383.252 -68.464 383.252 L 75.16 383.252 C 83.091 383.252 89.523 389.675 89.523 397.615 C 89.523 405.554 83.091 411.978 75.16 411.978 Z " fill="rgb(112,116,135)"/><path d=" M 75.16 469.428 L -11.015 469.428 C -18.947 469.428 -25.378 463.005 -25.378 455.065 C -25.378 447.126 -18.947 440.702 -11.015 440.702 L 75.16 440.702 C 83.091 440.702 89.523 447.126 89.523 455.065 C 89.523 463.005 83.091 469.428 75.16 469.428 Z " fill="rgb(112,116,135)"/></g><path d=" M -729.43 188.193 C -734.464 188.193 -739.286 185.904 -742.48 181.889 L -769.184 148.149 L -790.59 166.82 C -795.211 170.856 -802.231 170.368 -806.266 165.747 C -810.296 161.125 -809.814 154.106 -805.193 150.07 L -775.006 123.75 C -772.717 121.753 -769.739 120.767 -766.685 121.059 C -763.657 121.341 -760.88 122.849 -758.993 125.225 L -731.35 160.148 L -719.817 126.95 C -717.186 119.378 -710.921 113.954 -703.056 112.423 C -695.195 110.872 -687.357 113.595 -682.079 119.637 L -678.868 123.326 L -652.136 73.832 C -649.223 68.451 -642.458 66.411 -637.083 69.34 C -631.681 72.259 -629.673 78.996 -632.587 84.399 L -666.935 147.986 C -668.665 151.186 -671.86 153.344 -675.477 153.746 C -679.144 154.136 -682.686 152.736 -685.084 150.003 L -698.83 134.239 L -713.676 176.995 C -715.682 182.745 -720.652 186.943 -726.641 187.953 C -727.575 188.117 -728.502 188.193 -729.43 188.193 Z " fill="rgb(220,219,222)"/><path d=" M 432.82 152.907 C 428.622 155.685 423.338 156.437 418.458 154.852 L 377.569 141.454 L 370.023 168.837 C 368.397 174.753 362.273 178.22 356.357 176.594 C 350.446 174.964 346.974 168.844 348.6 162.928 L 359.248 124.32 C 360.055 121.391 361.994 118.926 364.702 117.483 C 367.383 116.047 370.53 115.773 373.415 116.712 L 415.741 130.579 L 407.037 96.53 C 405.052 88.763 407.283 80.783 412.997 75.166 C 418.696 69.533 426.735 67.479 434.471 69.604 L 439.185 70.908 L 434.161 14.881 C 433.621 8.786 438.136 3.352 444.235 2.828 C 450.351 2.28 455.743 6.79 456.296 12.905 L 462.746 84.886 C 463.069 88.51 461.595 92.073 458.801 94.404 C 455.958 96.754 452.232 97.541 448.724 96.585 L 428.561 91.026 L 439.777 134.874 C 441.278 140.776 439.451 147.02 435.013 151.167 C 434.326 151.82 433.594 152.395 432.82 152.907 Z " fill="rgb(54,217,217)" vector-effect="non-scaling-stroke" stroke-width="1.627" stroke="rgb(54,217,217)" stroke-linejoin="miter" stroke-linecap="butt" stroke-miterlimit="4"/></g><g id="automobile"><path d=" M -909.367 461.804 L -895.389 405.886 C -892.026 392.44 -885.077 380.164 -875.276 370.363 L -787.686 261.062 C -773.175 242.952 -751.223 232.414 -728.017 232.414 L -296.383 232.414 C -279.013 232.414 -262.582 240.286 -251.696 253.822 L -145.915 385.342 L -909.367 461.804 Z " fill="rgb(255,145,100)"/><path d=" M -296.379 232.414 L -728.015 232.414 C -751.223 232.414 -773.175 242.954 -787.686 261.066 L -875.267 370.372 C -885.064 380.169 -892.013 392.443 -895.374 405.884 L -909.356 461.806 L -622.612 614.734 L 180.259 614.734 L 180.259 467.928 C 180.259 439.837 160.001 415.815 132.269 411.343 C 35.485 395.734 -145.911 385.344 -145.911 385.344 L -251.685 253.824 C -262.573 240.286 -279.009 232.414 -296.379 232.414 Z " fill="rgb(175,240,120)"/><path d=" M 180.255 576.499 L -716.109 576.499 L -886.101 538.727 C -896.311 536.485 -906.617 542.917 -908.915 553.24 C -911.193 563.545 -904.694 573.756 -894.391 576.043 L -722.348 614.274 C -720.986 614.582 -719.604 614.731 -718.205 614.731 L 180.248 614.731 C 190.814 614.731 199.365 606.171 199.365 595.617 C 199.368 585.06 190.82 576.499 180.255 576.499 Z " fill="rgb(140,205,115)"/><g id="null"><path d=" M -296.374 232.414 L -727.838 232.414 C -751.147 232.414 -773.181 243.045 -787.688 261.289 L -871.125 366.227 L -260.611 385.342 L -145.915 385.342 L -251.687 253.822 C -262.573 240.286 -279.007 232.414 -296.374 232.414 Z " fill="rgb(150,225,120)"/><path d=" M 180.255 487.792 C 180.255 470.808 169.163 455.935 152.879 451.108 C 114.733 439.798 29.629 423.572 -144.716 423.572 L -890.244 423.572 C -900.801 423.572 -909.359 432.128 -909.359 442.687 L -909.367 557.385 L -546.152 595.617 L 180.255 595.617 L 180.255 487.792 Z " fill="rgb(150,225,120)"/></g><path d=" M -815.38 605.169 C -815.38 556.812 -776.121 517.552 -727.764 517.552 C -679.407 517.552 -640.148 556.812 -640.148 605.169 C -640.148 653.525 -679.407 692.785 -727.764 692.785 C -776.121 692.785 -815.38 653.525 -815.38 605.169 Z " fill="rgb(237,237,238)"/><path d=" M -727.753 710.312 C -785.73 710.312 -832.89 663.15 -832.89 605.175 C -832.89 547.2 -785.728 500.038 -727.753 500.038 C -669.778 500.038 -622.616 547.2 -622.616 605.175 C -622.616 663.152 -669.776 710.312 -727.753 710.312 Z  M -727.753 538.268 C -764.651 538.268 -794.659 568.275 -794.659 605.173 C -794.659 642.071 -764.651 672.078 -727.753 672.078 C -690.855 672.078 -660.848 642.071 -660.848 605.173 C -660.848 568.275 -690.855 538.268 -727.753 538.268 Z " fill="rgb(80,75,90)"/><path d=" M -765.996 605.169 C -765.996 584.068 -748.865 566.937 -727.764 566.937 C -706.663 566.937 -689.532 584.068 -689.532 605.169 C -689.532 626.269 -706.663 643.4 -727.764 643.4 C -748.865 643.4 -765.996 626.269 -765.996 605.169 Z " fill="rgb(220,219,222)"/><g id="null"><path d=" M -163.833 538.268 L -584.384 538.268 C -594.941 538.268 -603.499 529.707 -603.499 519.153 L -603.499 519.153 C -603.499 508.596 -594.941 500.038 -584.384 500.038 L -163.833 500.038 C -153.276 500.038 -144.718 508.596 -144.718 519.153 L -144.718 519.153 C -144.718 529.712 -153.276 538.268 -163.833 538.268 Z " fill="rgb(140,205,115)"/><path d=" M 180.255 538.268 L 142.023 538.268 C 131.466 538.268 122.908 529.707 122.908 519.153 L 122.908 519.153 C 122.908 508.596 131.468 500.038 142.023 500.038 L 180.255 500.038 C 190.812 500.038 199.37 508.596 199.37 519.153 L 199.37 519.153 C 199.37 529.712 190.812 538.268 180.255 538.268 Z " fill="rgb(140,205,115)"/></g><path d=" M -895.376 405.884 L -899.802 423.574 L -852.02 423.574 C -841.464 423.574 -832.906 415.016 -832.906 404.459 C -832.906 393.902 -841.466 385.344 -852.02 385.344 L -886.801 385.344 C -890.603 391.726 -893.555 398.61 -895.376 405.884 Z " fill="rgb(255,100,100)"/><path d=" M -108.09 605.169 C -108.09 556.812 -68.831 517.552 -20.474 517.552 C 27.882 517.552 67.142 556.812 67.142 605.169 C 67.142 653.525 27.882 692.785 -20.474 692.785 C -68.831 692.785 -108.09 653.525 -108.09 605.169 Z " fill="rgb(237,237,238)"/><path d=" M -20.463 710.312 C -78.44 710.312 -125.601 663.15 -125.601 605.175 C -125.601 547.2 -78.438 500.038 -20.463 500.038 C 37.511 500.038 84.674 547.2 84.674 605.175 C 84.674 663.152 37.514 710.312 -20.463 710.312 Z  M -20.463 538.268 C -57.361 538.268 -87.369 568.275 -87.369 605.173 C -87.369 642.071 -57.361 672.078 -20.463 672.078 C 16.435 672.078 46.442 642.071 46.442 605.173 C 46.442 568.275 16.435 538.268 -20.463 538.268 Z " fill="rgb(80,75,90)"/><path d=" M -58.706 605.169 C -58.706 584.068 -41.575 566.937 -20.474 566.937 C 0.627 566.937 17.758 584.068 17.758 605.169 C 17.758 626.269 0.627 643.4 -20.474 643.4 C -41.575 643.4 -58.706 626.269 -58.706 605.169 Z " fill="rgb(220,219,222)"/><path d=" M -253.725 370.666 L -333.898 266.449 C -341.135 257.042 -352.331 251.529 -364.202 251.529 L -640.919 251.529 C -657.693 251.529 -672.507 262.463 -677.451 278.492 L -697.867 344.689 C -704.102 357.16 -695.32 371.894 -681.388 372.342 L -260.609 385.34 L -260.594 385.34 C -253.01 385.34 -248.868 376.496 -253.725 370.666 Z " fill="rgb(98,93,107)"/><path d=" M 180.255 467.926 C 180.255 458.865 177.949 450.355 174.155 442.689 L 142.019 442.689 C 131.462 442.689 122.904 451.247 122.904 461.804 C 122.904 472.36 131.464 480.919 142.019 480.919 L 180.255 480.919 L 180.255 467.926 Z " fill="rgb(237,237,238)"/><path d=" M -507.92 377.704 L -469.688 378.884 L -477.978 251.529 L -516.21 251.529 L -507.92 377.704 Z " fill="rgb(80,75,90)"/><g id="null"><path d=" M -253.238 251.895 C -253.506 251.765 -253.731 251.659 -254 251.529 L -284.633 251.529 C -293.797 251.529 -298.956 262.064 -293.338 269.304 L -210.542 375.963 C -205.949 381.879 -198.881 385.34 -191.393 385.34 L -145.915 385.34 L -253.238 251.895 Z " fill="rgb(98,93,107)"/><path d=" M -716.421 270.057 C -712.242 261.503 -718.47 251.529 -727.989 251.529 L -777.939 251.529 C -781.388 254.541 -784.786 257.644 -787.688 261.287 L -871.125 366.225 L -789.732 368.774 C -774.699 369.244 -760.788 360.857 -754.183 347.344 L -716.421 270.057 Z " fill="rgb(98,93,107)"/></g></g><g id="check (2)"><path d=" M -382.989 -140.903 L -492.694 -179.622 C -494.08 -180.113 -495.605 -180.113 -496.991 -179.622 L -606.696 -140.903 C -609.273 -139.989 -611 -137.55 -611 -134.815 L -611 -57.376 C -611 42.837 -596.14 79.464 -497.748 129.073 C -496.834 129.533 -495.838 129.767 -494.842 129.767 C -493.847 129.767 -492.851 129.534 -491.937 129.073 C -393.545 79.464 -378.685 42.837 -378.685 -57.376 L -378.685 -134.815 C -378.685 -137.55 -380.412 -139.989 -382.989 -140.903 Z " fill="rgb(48,60,66)"/><path d=" M -494.842 -166.69 L -598.094 -130.246 L -598.094 -57.376 C -598.094 -45.698 -597.901 -35.015 -597.419 -25.114 L -494.842 -25.114 L -494.842 -166.69 L -494.842 -166.69 Z " fill="rgb(71,220,220)"/><path d=" M -392.266 -25.114 C -391.783 -35.015 -391.591 -45.698 -391.591 -57.376 L -391.591 -130.246 L -494.842 -166.69 L -494.842 -25.114 L -392.266 -25.114 Z " fill="rgb(1,87,155)"/><path d=" M -494.842 -25.114 L -494.842 116.078 C -414.903 75.323 -395.747 46.363 -392.266 -25.114 L -494.842 -25.114 Z " fill="rgb(54,217,217)"/><path d=" M -597.419 -25.114 C -593.938 46.363 -574.782 75.323 -494.842 116.078 L -494.842 -25.114 L -597.419 -25.114 Z " fill="rgb(1,87,155)"/><g opacity="0.1"><path d=" M -494.842 91.044 C -585.856 44.643 -598.094 26.483 -598.094 -69.502 L -598.094 -57.376 C -598.094 38.608 -585.856 69.677 -494.842 116.078 C -403.829 69.677 -391.591 38.608 -391.591 -57.376 L -391.591 -69.502 C -391.591 26.483 -403.83 44.643 -494.842 91.044 Z " fill="rgb(0,0,0)"/></g><path d=" M -469.029 58.779 C -469.029 19.602 -437.222 -12.206 -398.044 -12.206 C -358.867 -12.206 -327.06 19.602 -327.06 58.779 C -327.06 97.957 -358.867 129.764 -398.044 129.764 C -437.222 129.764 -469.029 97.957 -469.029 58.779 Z " fill="rgb(48,60,66)"/><path d=" M -456.123 58.779 C -456.123 26.725 -430.099 0.701 -398.044 0.701 C -365.99 0.701 -339.966 26.725 -339.966 58.779 C -339.966 90.834 -365.99 116.858 -398.044 116.858 C -430.099 116.858 -456.123 90.834 -456.123 58.779 Z " fill="rgb(237,237,238)"/><path d=" M -370.341 34.856 L -410.951 75.466 L -425.747 60.669 C -428.268 58.148 -432.352 58.148 -434.872 60.669 C -437.393 63.19 -437.393 67.273 -434.872 69.794 L -415.513 89.153 C -414.253 90.414 -412.601 91.044 -410.95 91.044 C -409.299 91.044 -407.648 90.414 -406.387 89.153 L -361.215 43.981 C -358.694 41.46 -358.694 37.376 -361.215 34.856 C -363.737 32.335 -367.821 32.335 -370.341 34.856 Z " fill="rgb(31,213,31)"/><linearGradient id="_lgradient_1" x1="-6.845493451344807%" y1="27.58399880665442%" x2="103.7230486775914%" y2="74.8458711089323%"><stop offset="0%" stop-opacity="0.2" style="stop-color:rgb(255,255,255)"/><stop offset="100%" stop-opacity="0" style="stop-color:rgb(255,255,255)"/></linearGradient><path d=" M -380.495 -9.922 C -379.191 -24.069 -378.685 -39.688 -378.685 -57.376 L -378.685 -134.815 C -378.685 -137.55 -380.412 -139.989 -382.989 -140.903 L -492.694 -179.622 C -494.08 -180.113 -495.605 -180.113 -496.991 -179.622 L -606.696 -140.903 C -609.273 -139.989 -611 -137.55 -611 -134.815 L -611 -57.376 C -611 42.837 -596.14 79.464 -497.748 129.073 C -496.834 129.533 -495.838 129.767 -494.842 129.767 C -493.847 129.767 -492.851 129.534 -491.937 129.073 C -476.164 121.12 -462.747 113.503 -450.984 105.903 C -437.974 120.503 -419.093 129.764 -398.044 129.764 C -358.903 129.764 -327.06 97.92 -327.06 58.779 C -327.06 25.703 -349.83 -2.079 -380.495 -9.922 Z " fill="url(#_lgradient_1)"/></g><g id="chronometer"><g id="null"><g id="null"><path d=" M 515.902 315.713 C 518.41 318.045 522.282 317.905 524.545 315.4 L 532.874 306.443 C 535.206 303.936 535.066 300.064 532.561 297.801 L 512.283 278.943 C 509.776 276.611 505.904 276.752 503.641 279.257 L 495.312 288.213 C 492.979 290.721 493.12 294.593 495.625 296.856 L 496.485 297.656 L 490.621 303.961 C 474.83 292.349 455.937 284.934 435.455 283.324 L 435.054 272.261 L 441.761 272.018 C 445.149 271.895 447.745 269.031 447.624 265.712 L 446.972 247.735 C 446.849 244.347 443.986 241.751 440.667 241.872 L 401.809 243.282 C 398.421 243.405 395.825 246.268 395.945 249.587 L 396.598 267.564 C 396.721 270.952 399.584 273.548 402.903 273.428 L 409.61 273.184 L 410.011 284.247 C 389.702 287.407 371.327 296.174 356.486 308.828 L 350.181 302.965 L 350.98 302.105 C 353.312 299.597 353.172 295.725 350.667 293.462 L 341.71 285.133 C 339.202 282.801 335.33 282.941 333.067 285.447 L 314.21 305.724 C 311.878 308.232 312.019 312.104 314.524 314.367 L 323.48 322.696 C 325.988 325.028 329.86 324.887 332.123 322.382 L 332.923 321.522 L 339.228 327.386 C 325.376 346.305 317.576 369.85 318.489 395.018 C 320.652 454.618 370.951 501.394 430.551 499.232 C 490.151 497.069 536.928 446.77 534.765 387.17 C 533.852 362.002 524.297 339.086 509.179 321.219 L 515.043 314.914 L 515.902 315.713 Z  M 429.643 474.202 C 383.871 475.863 345.251 439.948 343.59 394.176 C 341.929 348.404 377.844 309.784 423.616 308.123 C 469.388 306.462 508.008 342.378 509.669 388.15 C 511.33 433.922 475.415 472.541 429.643 474.202 Z " fill="rgb(32,88,179)"/><path d=" M 245.768 426.735 C 239.822 426.951 235.227 431.964 235.44 437.841 C 235.656 443.787 240.669 448.382 246.546 448.169 L 304.695 446.059 C 305.87 446.016 306.9 445.771 307.924 445.388 C 304.915 438.782 302.38 431.881 300.526 424.679 L 245.766 426.666 L 245.768 426.735 Z " fill="rgb(25,170,25)"/><path d=" M 304.242 345.825 C 303.264 345.584 302.148 345.348 301.041 345.388 L 209.705 348.702 C 203.759 348.918 199.164 353.931 199.377 359.808 C 199.593 365.754 204.606 370.349 210.483 370.136 L 298.362 366.947 C 299.697 359.837 301.653 352.704 304.242 345.825 Z " fill="rgb(31,213,31)"/><path d=" M 296.228 395.895 C 296.097 392.299 296.177 388.766 296.325 385.229 L 226.077 387.778 C 220.131 387.994 215.536 393.007 215.749 398.884 C 215.962 404.761 220.978 409.426 226.855 409.212 L 297.034 406.666 C 296.699 403.147 296.361 399.56 296.228 395.895 Z " fill="rgb(45,176,45)"/><path d=" M 477.71 358.363 C 475.805 355.455 472.028 354.415 468.975 356.118 L 432.234 375.798 C 427.534 374.099 422.148 374.503 417.613 377.367 C 409.968 382.283 407.707 392.473 412.623 400.118 C 417.539 407.763 427.729 410.024 435.374 405.108 C 439.907 402.174 442.504 397.442 442.879 392.512 L 476.095 367.283 C 478.927 365.172 479.618 361.339 477.71 358.363 Z  M 433.609 392.71 C 432.712 396.619 428.854 399.044 425.016 398.214 C 421.107 397.317 418.682 393.459 419.512 389.621 C 420.409 385.711 424.267 383.287 428.105 384.117 C 432.012 384.945 434.439 388.872 433.609 392.71 Z " fill="rgb(31,213,31)"/><path d=" M 448.504 349.106 C 451.822 350.855 455.928 349.529 457.607 346.214 C 459.356 342.897 458.03 338.791 454.715 337.111 C 451.398 335.362 447.361 336.686 445.612 340.003 C 444.448 342.261 444.679 344.814 445.927 346.777 C 446.582 347.653 447.445 348.522 448.504 349.106 Z " fill="rgb(204,204,204)"/><path d=" M 424.494 343.747 C 428.227 343.611 431.09 340.461 430.954 336.727 C 430.819 332.994 427.669 330.131 423.935 330.266 C 420.202 330.402 417.339 333.552 417.474 337.286 C 417.519 338.53 417.908 339.693 418.496 340.641 C 419.744 342.604 422.007 343.907 424.494 343.747 Z " fill="rgb(204,204,204)"/><path d=" M 428.84 438.716 L 428.84 438.716 C 425.109 438.92 422.246 442.07 422.381 445.804 C 422.427 447.049 422.812 448.142 423.401 449.09 C 424.649 451.053 426.912 452.355 429.398 452.196 C 433.129 451.991 435.992 448.841 435.787 445.11 C 435.726 441.511 432.573 438.58 428.84 438.716 Z " fill="rgb(204,204,204)"/><path d=" M 452.248 431.289 C 449.135 433.271 448.179 437.46 450.231 440.57 L 450.231 440.57 C 452.216 443.752 456.402 444.639 459.581 442.585 C 462.694 440.603 463.65 436.414 461.598 433.304 C 459.547 430.193 455.361 429.306 452.248 431.289 Z " fill="rgb(204,204,204)"/><path d=" M 477.933 410.279 C 474.618 408.6 470.509 409.857 468.83 413.171 C 467.665 415.429 467.894 417.913 469.145 419.945 C 469.733 420.893 470.664 421.759 471.722 422.274 C 475.039 424.023 479.145 422.697 480.825 419.383 C 482.504 416.068 481.248 411.959 477.933 410.279 Z " fill="rgb(204,204,204)"/><path d=" M 379.083 393.512 C 378.947 389.778 375.728 386.918 372.063 387.051 C 368.332 387.256 365.469 390.406 365.605 394.14 C 365.65 395.384 366.036 396.478 366.624 397.426 C 367.872 399.388 370.135 400.691 372.622 400.531 C 376.424 400.393 379.287 397.243 379.083 393.512 Z " fill="rgb(204,204,204)"/><path d=" M 377.297 414.9 C 374.184 416.882 373.229 421.071 375.28 424.181 L 375.28 424.181 C 377.262 427.294 381.451 428.25 384.63 426.196 C 387.743 424.213 388.63 420.027 386.645 416.845 C 384.596 413.804 380.407 412.849 377.297 414.9 Z " fill="rgb(204,204,204)"/><path d=" M 474.118 389.093 C 474.163 390.338 474.549 391.432 475.209 392.446 C 476.457 394.409 478.717 395.642 481.206 395.552 C 484.94 395.416 487.8 392.197 487.667 388.533 C 487.531 384.799 484.381 381.936 480.648 382.072 C 476.845 382.21 473.915 385.431 474.118 389.093 Z " fill="rgb(204,204,204)"/><path d=" M 375.27 372.395 C 378.587 374.144 382.693 372.818 384.373 369.503 L 384.373 369.503 C 386.053 366.188 384.799 362.149 381.412 360.403 C 378.097 358.723 374.058 359.977 372.309 363.295 C 371.211 365.481 371.373 368.036 372.624 370.068 C 373.281 371.013 374.141 371.814 375.27 372.395 Z " fill="rgb(204,204,204)"/><path d=" M 400.883 351.319 C 400.883 351.319 400.952 351.316 400.95 351.247 C 401.019 351.245 401.019 351.245 401.016 351.176 C 401.016 351.176 401.016 351.176 401.085 351.173 C 404.198 349.191 405.085 345.005 403.103 341.892 C 401.118 338.71 396.932 337.823 393.75 339.808 C 393.75 339.808 393.681 339.811 393.683 339.88 C 393.614 339.882 393.616 339.951 393.547 339.954 C 390.435 341.936 389.479 346.125 391.53 349.235 L 391.53 349.235 C 393.584 352.415 397.77 353.302 400.883 351.319 Z " fill="rgb(204,204,204)"/><path d=" M 404.765 433.496 C 401.448 431.747 397.342 433.073 395.662 436.388 C 394.498 438.646 394.729 441.199 395.977 443.161 C 396.565 444.109 397.497 444.976 398.556 445.56 C 401.871 447.24 405.977 445.914 407.659 442.668 C 409.406 439.282 408.082 435.245 404.765 433.496 Z " fill="rgb(204,204,204)"/></g></g></g><path d=" M 196.724 -131.653 C 167.408 -161.136 119.501 -161.136 90.185 -131.653 C 60.869 -102.337 60.869 -54.428 90.185 -25.112 C 104.423 -10.872 123.353 -3 143.453 -3 C 163.553 -3 182.486 -10.874 196.723 -25.112 C 226.21 -54.426 226.21 -102.337 196.724 -131.653 Z  M 161.288 -60.747 C 151.085 -50.543 135.429 -50.953 125.724 -60.641 C 116.104 -70.261 116.104 -86.505 125.724 -96.124 C 135.602 -106.042 151.461 -105.891 161.092 -96.224 C 171.323 -86.042 170.773 -70.172 161.288 -60.747 Z " fill="rgb(249,169,38)"/></g></svg>